<?xml version="1.0" standalone="no"?>
<!DOCTYPE svg PUBLIC "-//W3C//DTD SVG 20010904//EN"
 "http://www.w3.org/TR/2001/REC-SVG-20010904/DTD/svg10.dtd">
<svg version="1.0" xmlns="http://www.w3.org/2000/svg"
 width="500.000000pt" height="500.000000pt" viewBox="0 0 500.000000 500.000000"
 preserveAspectRatio="xMidYMid meet">

<g transform="translate(0.000000,500.000000) scale(0.100000,-0.100000)"
fill="#000000" stroke="none">
<path d="M0 2500 l0 -2500 2500 0 2500 0 0 2500 0 2500 -2500 0 -2500 0 0
-2500z m2962 2341 c203 -79 332 -268 330 -486 -1 -124 -38 -223 -124 -327
l-39 -48 45 0 46 0 0 -440 0 -440 -634 0 c-521 0 -635 -2 -639 -13 -3 -8 -8
-39 -12 -69 -4 -30 -10 -59 -13 -65 -4 -6 -83 -26 -176 -46 -151 -33 -173 -40
-201 -67 -28 -27 -47 -34 -160 -55 -71 -14 -130 -24 -131 -22 -2 2 -6 35 -10
74 -8 82 -22 72 139 102 105 20 109 21 145 3 37 -19 39 -18 194 11 l156 30 6
30 c3 16 6 42 6 58 0 29 0 29 -65 29 l-65 0 0 260 0 260 -40 0 c-28 0 -42 -5
-49 -19 -6 -10 -20 -21 -32 -24 -19 -5 -27 7 -75 108 -30 62 -54 116 -54 119
0 13 73 5 122 -14 68 -26 128 -27 128 -2 0 11 -23 28 -70 50 -256 120 -327
446 -144 660 104 122 284 174 440 127 71 -21 167 -87 206 -141 32 -45 38 -48
74 -38 16 4 23 16 28 43 8 55 61 153 111 209 59 66 136 117 220 148 62 22 82
24 175 21 78 -3 120 -9 162 -26z m738 -1166 c0 -210 -4 -345 -9 -345 -6 0 -66
34 -134 75 l-125 75 -101 0 -101 0 0 195 0 195 103 0 102 1 120 74 c66 40 126
74 133 74 9 1 12 -74 12 -344z m-720 -695 c0 -83 -1 -90 -20 -90 -11 0 -20 -1
-20 -3 0 -6 189 -944 195 -969 6 -23 13 -28 36 -28 29 0 29 0 29 -60 0 -47 -3
-60 -15 -60 -8 0 -15 -6 -15 -13 0 -7 65 -336 144 -732 79 -396 146 -731 147
-744 3 -21 -1 -26 -28 -32 -20 -4 -33 -2 -36 5 -2 6 -96 349 -207 763 -167
614 -207 753 -222 756 -15 4 -18 16 -18 69 0 49 -24 149 -104 443 -58 209
-105 378 -106 375 -1 -3 -32 -576 -69 -1275 l-66 -1270 -42 -3 c-28 -2 -43 1
-43 9 0 24 -150 2445 -153 2458 -1 7 -43 -141 -93 -330 -83 -312 -91 -350 -87
-411 5 -68 5 -68 -21 -68 -14 0 -26 -2 -26 -4 0 -3 -90 -336 -200 -741 -110
-406 -200 -739 -200 -741 0 -7 -45 -4 -58 4 -9 6 21 173 132 728 131 657 143
726 139 797 -5 74 -5 77 16 77 11 0 21 1 21 3 0 1 45 224 100 495 55 271 100
495 100 498 0 2 -9 4 -20 4 -19 0 -20 7 -20 90 l0 90 415 0 415 0 0 -90z"/>
<path d="M2692 4617 c-45 -14 -118 -81 -144 -131 -30 -57 -30 -165 0 -222 28
-54 77 -103 127 -125 45 -21 130 -24 187 -9 53 15 133 91 155 148 21 56 22
143 1 193 -52 122 -197 188 -326 146z m96 -96 c5 -32 -23 -54 -49 -40 -19 10
-26 49 -12 63 4 4 19 6 33 4 18 -2 26 -10 28 -27z m130 -89 c-4 -37 -51 -44
-69 -11 -10 20 -9 25 11 41 30 24 63 8 58 -30z m-228 -11 c12 -23 5 -47 -16
-55 -35 -13 -73 41 -47 67 13 14 53 6 63 -12z m210 -111 c22 -40 -26 -80 -58
-48 -25 25 -6 68 30 68 9 0 22 -9 28 -20z m-152 -39 c5 -32 -23 -54 -49 -40
-19 10 -26 49 -12 63 4 4 19 6 33 4 18 -2 26 -10 28 -27z"/>
<path d="M1785 4431 c-43 -19 -100 -78 -116 -118 -15 -41 -10 -121 10 -162 38
-73 115 -121 197 -121 48 0 128 46 160 92 26 37 29 50 29 118 0 68 -3 81 -29
118 -55 80 -166 112 -251 73z m90 -75 c0 -10 -8 -24 -18 -30 -14 -9 -21 -7
-32 7 -19 27 -8 49 24 45 18 -2 26 -9 26 -22z m100 -66 c0 -18 -6 -26 -23 -28
-24 -4 -38 18 -28 44 3 9 15 14 28 12 17 -2 23 -10 23 -28z m-175 -23 c0 -17
-20 -37 -37 -37 -7 0 -17 9 -23 19 -14 28 13 55 41 41 10 -6 19 -16 19 -23z
m165 -77 c11 -18 -6 -50 -26 -50 -22 0 -34 22 -25 45 6 17 42 20 51 5z m-130
-40 c0 -33 -40 -41 -50 -11 -9 28 2 43 28 39 16 -2 22 -10 22 -28z"/>
<path d="M2302 4100 c-18 -4 -34 -9 -35 -11 -1 -2 -14 -28 -28 -56 l-27 -53
119 0 118 0 -35 38 c-19 20 -42 49 -52 65 -9 15 -19 27 -22 26 -3 -1 -20 -5
-38 -9z"/>
<path d="M3038 3245 c-8 -19 -8 -28 2 -40 32 -38 94 1 70 45 -16 29 -58 26
-72 -5z"/>
<path d="M2163 2389 c-94 -470 -99 -500 -80 -497 18 3 35 58 143 458 68 250
124 474 124 498 l0 42 -44 0 -43 0 -100 -501z"/>
<path d="M2441 2813 c0 -43 12 -269 27 -503 l27 -425 57 -3 56 -3 6 63 c7 72
46 854 46 911 l0 37 -110 0 -110 0 1 -77z"/>
<path d="M2763 2868 c3 -13 63 -238 134 -500 117 -438 130 -478 149 -478 20 0
18 17 -79 500 l-100 500 -55 0 c-51 0 -54 -1 -49 -22z"/>
<path d="M2035 1748 c-14 -62 -55 -272 -54 -282 1 -14 11 20 53 177 27 99 31
127 20 127 -7 0 -16 -10 -19 -22z"/>
<path d="M3065 1748 c24 -96 94 -341 94 -332 1 10 -50 274 -64 332 -3 12 -12
22 -20 22 -11 0 -14 -7 -10 -22z"/>
<path d="M2503 1728 c3 -18 16 -210 29 -427 15 -254 25 -379 29 -350 4 24 14
204 23 399 9 195 19 367 21 383 4 27 4 27 -51 27 l-56 0 5 -32z"/>
<path d="M1971 1434 c0 -11 3 -14 6 -6 3 7 2 16 -1 19 -3 4 -6 -2 -5 -13z"/>
</g>
</svg>
